HIERARCHY
ROOT hip
{
	OFFSET 0.000000 0.000000 0.000000 
	CHANNELS 6 Xposition Yposition Zposition Xrotation Zrotation Yrotation
	JOINT abdomen
	{
		OFFSET 0.000000 3.402643 0.000000 
		CHANNELS 3 Xrotation Zrotation Yrotation
		JOINT chest
		{
			OFFSET 0.000000 8.438565 -0.680529 
			CHANNELS 3 Xrotation Zrotation Yrotation
			JOINT neck
			{
				OFFSET 0.000000 10.207942 -0.272212 
				CHANNELS 3 Xrotation Zrotation Yrotation
				JOINT head
				{
					OFFSET 0.000000 3.130431 0.000000 
					CHANNELS 3 Xrotation Zrotation Yrotation
					End Site
					{
						OFFSET 0.000000 3.130435 0.000000 
					}
				}
			}
			JOINT lCollar
			{
				OFFSET 3.470700 6.669187 -0.816635 
				CHANNELS 3 Yrotation Zrotation Xrotation
				JOINT lShldr
				{
					OFFSET 3.198488 0.000000 0.000000 
					CHANNELS 3 Zrotation Yrotation Xrotation
					JOINT lForeArm
					{
						OFFSET 10.139888 0.000000 0.000000 
						CHANNELS 3 Yrotation Zrotation Xrotation
						JOINT lHand
						{
							OFFSET 8.370511 0.000000 0.000000 
							CHANNELS 3 Zrotation Yrotation Xrotation
							End Site
							{
								OFFSET 4.083176 0.000000 0.000000 
							}
						}
					}
				}
			}
			JOINT rCollar
			{
				OFFSET -3.470700 6.669187 -0.816635 
				CHANNELS 3 Yrotation Zrotation Xrotation
				JOINT rShldr
				{
					OFFSET -3.198488 0.000000 0.000000 
					CHANNELS 3 Zrotation Yrotation Xrotation
					JOINT rForeArm
					{
						OFFSET -10.139888 0.000000 0.000000 
						CHANNELS 3 Yrotation Zrotation Xrotation
						JOINT rHand
						{
							OFFSET -8.370511 0.000000 0.000000 
							CHANNELS 3 Zrotation Yrotation Xrotation
							End Site
							{
								OFFSET -4.083176 0.000000 0.000000 
							}
						}
					}
				}
			}
		}
	}
	JOINT lThigh
	{
		OFFSET 5.308129 -1.633274 1.361059 
		CHANNELS 3 Xrotation Zrotation Yrotation
		JOINT lShin
		{
			OFFSET -2.041588 -20.007561 0.000000 
			CHANNELS 3 Xrotation Zrotation Yrotation
			JOINT lFoot
			{
				OFFSET 0.000000 -19.190928 -1.224953 
				CHANNELS 3 Xrotation Yrotation Zrotation
				End Site
				{
					OFFSET 0.000000 -2.449906 4.627600 
				}
			}
		}
	}
	JOINT rThigh
	{
		OFFSET -5.308129 -1.633274 1.361059 
		CHANNELS 3 Xrotation Zrotation Yrotation
		JOINT rShin
		{
			OFFSET 2.041588 -20.007561 0.000000 
			CHANNELS 3 Xrotation Zrotation Yrotation
			JOINT rFoot
			{
				OFFSET 0.000000 -19.190928 -1.224953 
				CHANNELS 3 Xrotation Yrotation Zrotation
				End Site
				{
					OFFSET 0.000000 -2.449906 4.627600 
				}
			}
		}
	}
}
MOTION
Frames: 10
Frame Time: 0.033333
-0.352562 47.641792 1.525647 -9.697152 -2.382029 5.385125 33.840321 2.460699 -5.160707 -10.570474 13.348516 -5.037873 -13.870554 6.462806 1.445109 3.112317 -9.324772 3.869097 -5.304729 -5.857570 -0.019346 -77.121010 -9.967783 3.519399 -49.396423 3.904697 49.990574 -7.462405 20.104723 -2.586694 9.717893 3.258422 -0.019775 65.659737 -18.477032 1.651262 28.481417 -4.032346 51.186077 -1.672298 -3.407039 0.089518 11.021390 7.273520 3.539988 56.207642 0.213358 -3.718065 17.774502 -14.217505 -7.968037 -20.906233 3.104662 -3.623610 31.161810 1.101927 2.545753 1.616723 -2.939770 12.094806 
-0.405158 47.760670 2.742397 -10.219752 -2.967260 4.986918 34.121555 3.028834 -4.233950 -9.945880 12.085961 -4.303634 -15.080023 8.710416 0.632580 4.475022 -10.740997 3.596900 -5.587574 -4.812552 -0.019370 -76.921501 -9.778526 4.732608 -47.326481 3.935451 50.446129 -8.893944 20.193008 -3.098693 8.711772 4.939928 -0.010458 65.376984 -15.999117 1.591202 28.356619 -4.069245 51.801628 -1.124312 -3.261283 0.054146 10.299144 8.435220 4.371872 58.839916 0.369042 -3.793457 21.627066 -13.830477 -7.091086 -19.694630 3.944776 -4.010436 32.881618 1.043233 2.627025 -0.453338 -2.717420 11.990006 
-0.503508 47.852612 3.827444 -10.490251 -3.132460 5.026954 34.328850 3.127585 -3.882359 -9.991175 11.768659 -4.019998 -15.163196 9.384624 0.317872 4.653157 -10.869512 3.439756 -5.782002 -4.422845 -0.009687 -76.648819 -9.316036 6.224845 -45.396290 3.951135 50.717762 -10.702722 19.871712 -3.672698 8.565415 5.691905 -0.010578 65.307533 -14.255382 1.768863 28.818642 -4.052840 51.484375 -1.408210 -3.446466 0.074804 7.997516 9.101426 4.284108 62.581486 0.622180 -3.912934 22.908871 -12.325148 -7.379494 -18.579943 4.373395 -4.205613 34.102291 0.989913 2.702780 -2.272620 -2.737371 11.901031 
-0.601857 47.944550 4.912427 -10.760115 -3.287911 5.066488 34.538506 3.216585 -3.521039 -10.047490 11.450989 -3.724951 -15.244141 10.058594 0.001706 4.822812 -10.988238 3.282640 -5.977248 -4.041952 -0.009688 -76.366920 -8.853570 7.724426 -43.472015 3.982843 50.996014 -12.510454 19.521341 -4.249583 8.419059 6.434117 -0.010694 65.241005 -12.505162 1.945590 29.278662 -4.028210 51.160824 -1.702002 -3.621742 0.097620 5.690927 9.763573 4.179430 66.323914 0.866578 -3.992877 24.184717 -10.837260 -7.700856 -17.469774 4.813516 -4.403756 35.322521 0.912011 2.789760 -4.082860 -2.764777 11.820712 
-0.672646 48.080952 5.936358 -10.842397 -3.240233 4.870943 34.714172 2.630681 -3.880929 -11.158632 14.000764 -3.974190 -13.313508 6.971379 1.102257 3.954050 -10.029510 3.589910 -5.635686 -5.409197 -0.009675 -77.161743 -7.425335 8.346767 -41.958042 4.020518 51.919617 -14.085523 18.672022 -4.591603 9.924520 3.928815 -0.039057 65.620201 -12.344049 3.174230 30.362967 -3.942337 49.863960 -2.103989 -3.972296 0.135766 2.732719 9.928226 3.919290 69.587166 1.099526 -4.073967 22.818497 -9.040581 -8.685706 -16.251835 5.085557 -4.075105 35.829765 0.876967 2.833489 -5.165543 -2.756275 11.769812 
-0.743426 48.217350 6.960240 -10.935317 -3.192445 4.684599 34.886364 2.054883 -4.250563 -12.296457 16.528393 -4.288424 -11.441152 3.854852 2.094962 3.099481 -9.061597 3.875636 -5.303890 -6.776442 -0.009656 -77.943314 -5.986653 8.948837 -40.444202 4.080666 52.834343 -15.644918 17.824297 -4.909060 11.426018 1.414081 -0.009810 66.010719 -12.196567 4.412021 31.449207 -3.877158 48.568188 -2.506397 -4.322474 0.178798 -0.215081 10.079162 3.640752 72.851295 1.322825 -4.128191 21.510618 -7.240240 -9.584209 -15.043324 5.349303 -3.730780 36.356716 0.847581 2.870100 -6.284398 -2.735952 11.726678 
-0.713826 48.376202 7.976258 -11.184842 -2.825739 3.822856 35.205242 1.402867 -3.975568 -12.869716 16.711519 -3.892811 -10.538871 2.829680 2.336922 2.735681 -8.506130 3.879390 -5.450428 -7.088916 -0.009647 -77.743446 -4.528062 9.580917 -39.555878 4.125288 53.809181 -16.617271 16.801756 -4.928853 11.953238 0.681571 -0.009669 66.209335 -11.208979 5.408239 32.781986 -3.856710 48.247147 -3.288655 -4.017391 0.220377 -2.733885 9.529066 3.799637 74.594635 1.467123 -4.149803 20.184105 -5.412853 -10.408867 -13.583199 5.223779 -2.883198 36.922848 0.828050 2.901796 -7.318578 -2.395247 11.735350 
-0.684226 48.535065 8.992266 -11.445978 -2.467407 2.961704 35.507339 0.760122 -3.711258 -13.443363 16.893871 -3.509370 -9.636863 1.795097 2.550330 2.382397 -7.940928 3.884909 -5.596964 -7.391625 -0.009638 -77.518105 -3.068481 10.225218 -38.681858 4.177102 54.778774 -17.587574 15.781078 -4.924527 12.470703 -0.058594 0.000000 66.422035 -10.231938 6.418925 34.110371 -3.837918 47.926125 -4.069788 -3.712727 0.243966 -5.261961 8.980747 3.960828 76.368736 1.574295 -4.166247 18.897196 -3.569016 -11.135723 -12.123248 5.065098 -2.017789 37.499489 0.804622 2.913226 -8.347265 -2.011036 11.748056 
-0.622968 48.718529 9.980425 -11.162806 -2.381509 1.896141 35.089245 0.526603 -3.037161 -13.327397 15.880774 -2.769949 -9.666799 2.087946 2.443342 2.792997 -8.467546 3.839322 -5.762968 -7.323238 -0.009637 -76.765701 -1.849888 10.804182 -38.103245 4.203734 55.341885 -17.253368 16.146740 -4.934347 12.343803 0.320178 -0.009594 65.976242 -8.514619 7.574172 35.892788 -3.795425 47.362576 -4.815215 -3.903054 0.318706 -8.113604 8.630876 3.996300 76.660011 1.622662 -4.169550 17.978384 -2.724794 -11.436242 -10.969765 4.878836 -1.412562 37.596542 0.794903 2.934343 -9.306890 -1.197693 11.878898 
-0.561704 48.901989 10.968584 -10.882591 -2.275151 0.830587 34.655083 0.312234 -2.363299 -13.228848 14.864030 -2.039392 -9.688056 2.371061 2.345783 3.195304 -8.984468 3.795427 -5.938736 -7.254848 -0.009635 -75.999802 -0.644727 11.397979 -37.530342 4.233865 55.899250 -16.921419 16.510214 -4.949039 12.216912 0.691293 -0.009662 65.576836 -6.781984 8.714253 37.673767 -3.765050 46.800804 -5.550611 -4.093057 0.387369 -10.975560 8.280429 4.029628 76.992546 1.622801 -4.162353 17.035208 -1.904583 -11.721701 -9.813718 4.677342 -0.809189 37.684692 0.798656 2.930187 -10.263270 -0.375236 12.020156 
